<?xml version="1.0" standalone="no"?>
<!DOCTYPE svg PUBLIC "-//W3C//DTD SVG 20010904//EN"
 "http://www.w3.org/TR/2001/REC-SVG-20010904/DTD/svg10.dtd">
<svg version="1.0" xmlns="http://www.w3.org/2000/svg"
 width="500.000000pt" height="500.000000pt" viewBox="0 0 500.000000 500.000000"
 preserveAspectRatio="xMidYMid meet">

<g transform="translate(0.000000,500.000000) scale(0.100000,-0.100000)"
fill="#000000" stroke="none">
<path d="M3324 4569 c-3 -6 0 -17 8 -25 13 -13 16 -11 26 11 10 22 9 25 -8 25
-10 0 -22 -5 -26 -11z"/>
<path d="M3390 4570 c0 -5 5 -10 11 -10 5 0 7 5 4 10 -3 6 -8 10 -11 10 -2 0
-4 -4 -4 -10z"/>
<path d="M3125 4552 c-73 -38 -75 -38 -75 -17 0 21 -6 19 -62 -15 -26 -16 -56
-30 -66 -30 -9 0 -41 -16 -69 -35 -61 -41 -193 -170 -193 -188 0 -7 -15 -28
-34 -47 -18 -19 -40 -48 -49 -65 -8 -16 -31 -48 -50 -70 -34 -39 -127 -171
-127 -179 0 -4 -90 -134 -135 -195 -11 -15 -39 -56 -63 -91 -23 -35 -45 -66
-48 -69 -3 -3 -15 8 -28 24 l-23 29 -7 -50 c-5 -41 -13 -57 -41 -81 -19 -17
-35 -39 -35 -48 0 -26 -61 -95 -84 -95 -24 0 -96 -62 -96 -82 0 -7 -14 -24
-32 -38 -18 -14 -44 -37 -58 -52 -15 -15 -46 -33 -69 -40 -41 -13 -62 -42 -47
-67 4 -5 2 -12 -3 -15 -5 -4 -17 -28 -26 -55 -11 -34 -23 -51 -38 -55 -11 -3
-18 -8 -14 -12 3 -4 -7 -22 -23 -41 -17 -18 -30 -40 -30 -48 0 -7 -15 -33 -34
-58 -37 -49 -78 -132 -68 -141 3 -3 0 -6 -6 -6 -14 0 -48 -149 -62 -275 -7
-58 -20 -117 -31 -140 -40 -80 -69 -129 -81 -136 -7 -5 -13 -16 -13 -26 0 -10
-15 -27 -33 -38 -18 -11 -77 -52 -131 -91 -144 -103 -132 -100 -345 -85 -100
7 -264 16 -366 21 -184 9 -279 17 -312 26 -17 5 -18 -44 -18 -935 l0 -941
1655 0 c910 0 1655 3 1655 8 0 4 -16 36 -35 72 -19 35 -35 70 -35 77 0 7 -4
13 -10 13 -5 0 -10 6 -10 13 0 7 -18 29 -39 49 -22 20 -37 39 -34 42 4 3 1 6
-5 6 -13 0 -52 31 -52 42 0 3 14 3 30 -2 42 -12 40 11 -5 51 -19 17 -44 55
-56 85 -18 42 -28 54 -51 59 -17 4 -28 13 -28 23 0 14 -2 14 -9 3 -5 -7 -14
-12 -21 -9 -7 2 -2 13 14 29 l26 26 -30 38 c-17 21 -35 55 -42 77 -21 69 -9
82 147 162 77 39 176 96 219 126 98 68 251 204 291 259 17 22 83 84 147 137
124 102 265 242 298 296 26 44 25 64 -6 110 -27 39 -44 48 -44 25 0 -18 -66
-94 -75 -85 -3 3 -9 24 -11 46 -4 37 -1 43 41 80 25 22 45 46 45 54 0 8 13 29
30 46 16 18 30 36 30 42 0 5 3 10 8 10 4 0 18 20 32 45 23 42 50 66 50 44 0
-5 -14 -38 -32 -72 -18 -34 -38 -75 -46 -92 -12 -28 -10 -27 32 14 38 37 52
45 81 44 32 -1 36 2 45 37 16 58 72 107 280 246 76 51 119 84 187 145 28 26
80 133 88 184 4 22 22 72 40 110 49 106 55 123 55 156 0 28 -1 29 -16 15 -8
-9 -17 -16 -19 -16 -2 0 -1 27 2 60 4 44 2 60 -7 60 -8 0 -10 6 -5 18 4 9 9
28 11 42 3 14 7 33 10 42 7 24 -6 44 -17 27 -6 -10 -9 -6 -9 13 0 15 -4 29
-10 33 -5 3 -7 12 -3 20 3 9 -1 15 -11 15 -19 0 -20 20 -5 90 8 38 8 55 0 63
-6 6 -12 20 -12 32 -1 13 -3 11 -8 -9 -3 -16 -12 -31 -19 -34 -10 -3 -11 13
-6 77 5 60 4 81 -5 81 -11 0 -10 26 5 99 4 18 1 22 -10 18 -12 -5 -13 -2 -6
19 13 33 5 65 -33 138 l-31 58 -11 -38 c-7 -25 -13 -35 -18 -26 -5 7 -18 10
-30 6 -15 -3 -31 2 -47 16 -13 11 -30 18 -37 16 -33 -13 -1 34 38 54 20 11 23
9 32 -35 3 -11 5 -1 6 23 1 43 -6 51 -27 30 -10 -10 -15 -10 -22 2 -5 8 -10
23 -10 32 0 9 -4 19 -9 22 -5 3 -12 21 -15 39 -9 49 -45 119 -59 114 -6 -2
-14 -17 -19 -33 -16 -62 -58 -130 -58 -95 0 5 -17 16 -37 24 -24 10 -32 17
-23 20 8 2 29 8 45 13 32 10 42 40 13 38 -12 -1 -18 5 -18 18 0 12 -8 22 -20
25 -11 3 -20 10 -19 17 4 34 -2 46 -25 46 -31 0 -56 10 -56 21 0 5 7 9 15 9
23 0 18 37 -7 54 -12 9 -33 16 -45 16 -15 0 -23 6 -23 18 0 25 -19 42 -47 42
-19 0 -23 -5 -23 -29 0 -33 -18 -44 -43 -26 -11 8 -33 11 -57 8 -24 -4 -46 -1
-54 7 -9 6 -20 9 -26 5 -5 -3 -10 -1 -10 4 0 6 -6 11 -14 11 -8 0 -17 11 -20
25 -4 14 -11 23 -16 20 -12 -7 -150 62 -150 76 0 12 61 39 90 39 25 0 26 13 3
40 -23 26 -31 25 -43 -5 -5 -14 -17 -25 -28 -25 -10 0 -27 -7 -38 -15 -28 -21
-35 -18 -28 10 4 15 2 25 -5 25 -6 0 -11 6 -11 13 0 19 -129 21 -136 2 -8 -20
-24 -19 -24 1 0 11 -6 14 -20 9 -23 -7 -28 13 -8 33 22 22 -10 14 -52 -13 -23
-14 -53 -28 -68 -31 -24 -5 -29 -2 -37 28 -10 32 -11 33 -75 34 -43 1 -75 -3
-95 -14z m565 -136 c0 -3 -4 -8 -10 -11 -5 -3 -10 -1 -10 4 0 6 5 11 10 11 6
0 10 -2 10 -4z m421 -206 c17 -10 18 -13 4 -26 -8 -8 -18 -21 -23 -29 -13 -25
-92 -24 -116 1 -9 8 -20 13 -25 9 -18 -10 -21 12 -3 28 28 25 128 35 163 17z
m77 -25 c-3 -3 -13 -2 -22 1 -14 5 -15 9 -4 15 13 8 36 -6 26 -16z m-118 -95
c0 -5 -2 -10 -4 -10 -3 0 -8 5 -11 10 -3 6 -1 10 4 10 6 0 11 -4 11 -10z m392
-172 c-7 -7 -12 -8 -12 -2 0 6 3 14 7 17 3 4 9 5 12 2 2 -3 -1 -11 -7 -17z
m-80 -40 c-6 -6 -15 -8 -19 -4 -4 4 -1 11 7 16 19 12 27 3 12 -12z m-1862
-297 c0 -12 -30 -22 -43 -14 -7 4 -3 9 9 14 26 10 34 10 34 0z m-130 -48 c0
-27 -3 -34 -15 -30 -8 4 -18 1 -22 -6 -7 -12 -9 -17 -12 -36 0 -5 -10 -7 -21
-4 -12 3 -29 -2 -40 -12 -22 -20 -26 -45 -7 -45 6 0 22 -15 35 -33 12 -19 34
-40 48 -47 15 -9 23 -19 19 -29 -3 -8 -1 -18 6 -21 8 -6 8 -9 0 -14 -6 -4 -11
-2 -11 3 0 26 -20 8 -25 -23 -7 -33 17 -106 34 -106 4 0 7 -10 8 -22 4 -46 94
-194 162 -263 93 -95 153 -134 256 -165 22 -7 54 -23 71 -35 34 -26 56 -24
175 14 67 21 165 93 153 112 -3 5 6 13 19 18 13 5 27 16 30 24 3 9 16 12 34
10 34 -4 46 3 64 42 8 16 23 31 34 33 49 10 53 75 8 122 -18 19 -33 41 -33 50
0 9 -14 30 -30 49 -17 18 -37 47 -44 65 -7 18 -26 42 -41 54 -15 12 -24 26
-20 31 3 6 0 18 -7 26 -7 9 -18 21 -23 28 -6 7 -18 28 -28 48 -10 23 -26 39
-41 43 -28 7 -42 34 -21 42 27 11 65 -5 65 -26 0 -15 7 -20 25 -20 15 0 25 -6
25 -15 0 -8 14 -21 30 -30 17 -9 30 -19 30 -23 0 -4 24 -25 53 -47 28 -21 59
-48 68 -58 9 -11 21 -17 26 -14 13 8 25 -47 17 -78 -4 -17 2 -28 23 -44 71
-53 96 -76 104 -98 5 -13 15 -23 23 -23 15 0 30 -27 27 -48 -1 -6 8 -16 21
-22 25 -10 54 -34 77 -63 10 -13 11 -20 2 -31 -9 -11 -32 -13 -104 -9 -75 3
-100 1 -137 -14 -62 -26 -110 -56 -110 -69 0 -6 -12 -21 -26 -35 -29 -27 -43
-55 -80 -159 -27 -78 -36 -101 -74 -185 -38 -84 -70 -188 -70 -226 0 -47 -17
-60 -77 -59 -26 1 -66 -3 -88 -9 -61 -16 -82 -14 -88 10 -3 11 -15 23 -26 26
-24 6 -32 24 -36 85 -4 50 -21 92 -34 84 -4 -3 -14 6 -21 19 -7 13 -37 36 -66
51 -62 31 -72 57 -21 50 17 -2 40 -7 50 -11 9 -4 30 -2 45 4 15 6 43 13 62 15
19 2 34 6 33 10 -2 3 -3 10 -3 16 0 22 -45 50 -81 50 -84 0 -289 -74 -289
-105 0 -7 7 -18 15 -25 8 -7 15 -23 15 -37 0 -13 7 -35 16 -48 11 -18 13 -25
4 -25 -7 0 -10 -6 -7 -13 6 -15 -7 -18 -76 -18 -37 0 -60 7 -96 30 -26 17 -53
31 -60 31 -7 0 -11 6 -8 14 6 14 -55 46 -88 46 -8 0 -19 9 -25 20 -13 24 -74
37 -95 20 -8 -7 -24 -10 -36 -7 -14 4 -23 -1 -31 -18 -11 -24 -47 -45 -78 -45
-11 0 -24 -9 -30 -20 -8 -15 -17 -18 -43 -14 -49 9 -94 35 -106 62 -9 19 -16
23 -37 18 -22 -6 -25 -4 -19 14 5 14 2 20 -10 20 -20 0 -48 64 -40 91 4 12 1
21 -10 25 -12 5 -14 14 -10 35 4 16 2 29 -3 29 -13 0 -2 50 12 50 6 0 4 5 -6
10 -15 9 -15 14 4 67 11 32 31 68 44 81 17 16 24 34 24 62 0 33 4 40 30 52 20
9 38 29 54 63 13 27 42 72 65 100 22 27 41 55 41 62 0 7 5 13 10 13 6 0 10 6
10 14 0 7 6 19 14 25 8 7 28 40 45 75 16 35 37 68 45 75 8 7 12 19 9 27 -3 8
1 14 8 14 14 0 89 76 89 91 0 5 7 9 15 9 8 0 19 8 24 19 6 10 25 26 43 35 18
9 40 21 48 26 8 6 36 19 63 31 26 11 47 24 47 29 0 5 7 7 15 4 9 -4 15 -19 15
-41z m60 -4 c0 -11 -4 -17 -10 -14 -5 3 -10 13 -10 21 0 8 5 14 10 14 6 0 10
-9 10 -21z m627 -54 c3 -9 3 -19 -1 -22 -8 -9 -37 18 -30 28 8 14 24 11 31 -6z
m1600 -31 c1 -20 0 -22 -4 -6 -2 12 -9 22 -14 22 -5 0 -9 5 -9 11 0 25 25 0
27 -27z m33 -218 c0 -3 -4 -8 -10 -11 -5 -3 -10 -1 -10 4 0 6 5 11 10 11 6 0
10 -2 10 -4z m-1864 -117 c19 -21 19 -21 -9 -8 -15 7 -27 16 -27 21 0 14 16 9
36 -13z m-1144 -31 c-6 -6 -15 -8 -19 -4 -4 4 -1 11 7 16 19 12 27 3 12 -12z
m978 -23 c0 -17 -4 -23 -14 -19 -8 3 -12 13 -9 25 7 27 23 24 23 -6z m233
-132 c3 -5 8 -23 12 -40 5 -24 3 -33 -7 -33 -23 0 -88 21 -88 28 1 7 60 49 72
51 4 1 9 -2 11 -6z m555 -513 c30 0 34 -13 16 -56 l-16 -38 -15 29 c-9 17 -24
40 -35 52 -25 27 -15 52 11 29 10 -9 27 -16 39 -16z m-171 -227 c22 -38 95
-113 108 -113 5 0 30 -18 55 -40 24 -22 53 -43 65 -46 11 -4 22 -9 25 -13 15
-18 117 -72 142 -75 16 -2 35 -9 41 -15 6 -6 20 -11 30 -11 14 0 17 -3 10 -12
-6 -7 -9 -22 -7 -33 6 -34 -4 -60 -30 -71 -20 -9 -28 -8 -44 8 -20 20 -20 20
-17 -8 1 -16 5 -37 10 -48 5 -11 4 -26 -3 -37 -7 -10 -12 -26 -12 -34 0 -11
-6 -14 -25 -9 -15 4 -32 1 -40 -6 -10 -9 -15 -9 -15 -1 0 6 -7 11 -15 11 -8 0
-15 -7 -15 -15 0 -20 -59 -20 -66 -1 -4 11 -13 7 -38 -17 -19 -19 -43 -33 -60
-34 -19 -1 -38 -12 -55 -32 -22 -25 -29 -29 -40 -19 -10 11 -15 10 -25 -4 -16
-22 -51 -17 -51 7 0 26 -17 29 -60 11 -51 -22 -65 -20 -65 8 0 15 -7 26 -20
29 -13 3 -22 17 -26 36 -4 17 -10 28 -15 26 -4 -3 -17 5 -28 17 -28 29 -30
121 -3 138 16 11 16 11 0 6 -34 -10 -18 21 30 58 54 42 102 109 102 141 0 12
11 44 25 71 14 27 25 54 25 60 0 6 10 19 21 30 12 10 25 29 30 42 12 30 35 28
56 -5z m-692 -133 c3 -5 -1 -10 -10 -10 -9 0 -13 5 -10 10 3 6 8 10 10 10 2 0
7 -4 10 -10z m-1451 -94 c-3 -9 -10 -16 -15 -16 -6 0 -5 9 1 21 13 24 24 20
14 -5z m1237 -100 c15 -14 33 -39 40 -55 8 -17 19 -31 26 -31 7 0 17 -9 23
-20 6 -11 17 -20 24 -20 8 0 14 -11 14 -25 0 -14 -4 -25 -9 -25 -5 0 -8 3 -8
8 4 25 -2 34 -15 23 -11 -9 -25 -2 -66 31 -70 56 -130 120 -124 130 11 18 70
8 95 -16z m-1351 -30 c0 -2 -8 -10 -17 -17 -16 -13 -17 -12 -4 4 13 16 21 21
21 13z m2840 -96 c0 -10 -4 -22 -10 -25 -6 -4 -10 7 -10 25 0 18 4 29 10 25 6
-3 10 -15 10 -25z m-135 -10 c3 -5 1 -10 -4 -10 -6 0 -11 5 -11 10 0 6 2 10 4
10 3 0 8 -4 11 -10z m-20 -20 c3 -5 1 -10 -4 -10 -6 0 -11 5 -11 10 0 6 2 10
4 10 3 0 8 -4 11 -10z m-2775 -260 c-5 -22 -8 -27 -9 -13 -1 21 9 56 14 51 2
-2 0 -19 -5 -38z m-39 -91 c6 -30 14 -79 18 -109 4 -30 24 -134 44 -231 37
-179 44 -225 51 -339 3 -36 8 -73 11 -82 4 -9 2 -25 -4 -35 -9 -15 -10 -13
-11 15 0 18 -7 46 -15 61 -8 16 -12 30 -10 33 3 2 -4 29 -15 59 -11 29 -20 66
-20 82 0 16 -7 30 -15 34 -14 5 -14 8 1 24 16 18 16 23 2 72 -9 28 -19 80 -23
115 -4 34 -11 64 -16 67 -5 3 -6 26 -2 50 3 27 1 50 -5 58 -13 15 -23 202 -10
189 5 -5 13 -33 19 -63z m59 -45 c0 -8 -5 -12 -10 -9 -6 4 -8 11 -5 16 9 14
15 11 15 -7z m17 -186 c-3 -8 -6 -5 -6 6 -1 11 2 17 5 13 3 -3 4 -12 1 -19z
m23 -50 c0 -5 -4 -8 -10 -8 -5 0 -10 10 -10 23 0 18 2 19 10 7 5 -8 10 -18 10
-22z m7 -80 c-3 -8 -6 -5 -6 6 -1 11 2 17 5 13 3 -3 4 -12 1 -19z m23 -58 c0
-11 -2 -20 -4 -20 -2 0 -6 9 -9 20 -3 11 -1 20 4 20 5 0 9 -9 9 -20z m-117
-57 c-7 -2 -19 -2 -25 0 -7 3 -2 5 12 5 14 0 19 -2 13 -5z m147 -54 c0 -15 4
-30 8 -33 5 -3 7 -30 4 -60 -2 -30 0 -69 6 -86 11 -31 7 -60 -9 -60 -5 0 -9 9
-9 21 0 11 -4 28 -9 37 -5 9 -12 69 -15 132 -6 104 -5 113 9 96 8 -11 15 -32
15 -47z m17 -306 c-3 -10 -5 -2 -5 17 0 19 2 27 5 18 2 -10 2 -26 0 -35z m346
-3 c-68 -32 -81 -45 -32 -35 l31 7 -45 -41 c-42 -39 -66 -49 -80 -34 -4 3 1
15 10 25 16 18 16 18 -3 12 -10 -4 -29 -14 -41 -22 -12 -7 -32 -12 -45 -10
-20 4 -18 6 17 23 22 11 59 32 81 47 23 15 61 32 84 37 23 5 44 12 47 15 4 3
13 6 22 6 9 0 -12 -13 -46 -30z m-633 -176 c0 -8 -4 -12 -10 -9 -5 3 -10 10
-10 16 0 5 5 9 10 9 6 0 10 -7 10 -16z m20 -108 c0 -26 -24 -53 -34 -37 -8 13
11 61 24 61 5 0 10 -11 10 -24z"/>
<path d="M3824 4458 c-10 -16 4 -22 28 -11 l22 10 -22 5 c-12 4 -25 2 -28 -4z"/>
<path d="M3915 4410 c3 -5 11 -10 16 -10 6 0 7 5 4 10 -3 6 -11 10 -16 10 -6
0 -7 -4 -4 -10z"/>
<path d="M3891 4354 c-7 -8 -10 -18 -7 -21 7 -7 36 16 36 28 0 13 -13 10 -29
-7z"/>
<path d="M4596 3811 c-4 -7 -5 -15 -2 -18 9 -9 19 4 14 18 -4 11 -6 11 -12 0z"/>
<path d="M1939 3577 c-36 -34 -78 -81 -95 -105 -16 -24 -35 -52 -43 -63 -7
-10 -9 -19 -4 -19 11 0 41 28 93 86 47 52 80 71 91 53 7 -11 11 -11 21 -1 10
10 10 14 0 21 -10 6 -10 10 3 21 15 12 22 70 8 70 -5 -1 -38 -29 -74 -63z"/>
<path d="M1963 3505 c0 -8 7 -15 15 -15 7 0 12 5 10 12 -6 18 -25 21 -25 3z"/>
<path d="M4787 3246 c-4 -10 -5 -21 -2 -24 9 -9 17 6 13 25 -3 17 -4 17 -11
-1z"/>
</g>
</svg>
